<?xml version="1.0" encoding="iso-8859-1"?>
<!-- Generator: Adobe Illustrator 19.0.0, SVG Export Plug-In . SVG Version: 6.00 Build 0)  -->
<svg version="1.1" id="Capa_1" xmlns="http://www.w3.org/2000/svg" xmlns:xlink="http://www.w3.org/1999/xlink" x="0px" y="0px"
	 viewBox="0 0 512 512" style="enable-background:new 0 0 512 512;" xml:space="preserve">
<path style="fill:#FFDB67;" d="M318,255.151c0-2.833,2.318-5.151,5.151-5.151h62.186V66.599c0-2.833-1.637-6.792-3.638-8.797
	L327.668,3.647C325.667,1.641,321.712,0,318.879,0H27.709c-2.833,0-5.15,2.318-5.15,5.151v476.465c0,2.833,2.318,5.151,5.15,5.151
	H318V255.151z"/>
<path style="opacity:0.1;enable-background:new    ;" d="M54.96,481.616V5.151C54.96,2.318,57.278,0,60.111,0H27.709
	c-2.833,0-5.15,2.318-5.15,5.151v476.465c0,2.833,2.318,5.151,5.15,5.151h32.402C57.278,486.767,54.96,484.449,54.96,481.616z"/>
<path style="fill:#F7931E;" d="M381.699,57.802L327.668,3.647c-0.905-0.908-2.217-1.73-3.638-2.37v55.021
	c0,2.833,2.317,5.151,5.151,5.151h54.883C383.427,60.025,382.605,58.71,381.699,57.802z"/>
<g>
	<path style="fill:#0481BF;" d="M266.577,61.135h-82.313c-4.142,0-7.5-3.358-7.5-7.5s3.358-7.5,7.5-7.5h82.313
		c4.143,0,7.5,3.358,7.5,7.5S270.72,61.135,266.577,61.135z"/>
	<path style="fill:#0481BF;" d="M341.684,94.135H184.265c-4.142,0-7.5-3.358-7.5-7.5s3.358-7.5,7.5-7.5h157.419
		c4.143,0,7.5,3.358,7.5,7.5C349.184,90.777,345.826,94.135,341.684,94.135z"/>
	<path style="fill:#0481BF;" d="M341.684,125.76H184.265c-4.142,0-7.5-3.358-7.5-7.5s3.358-7.5,7.5-7.5h157.419
		c4.143,0,7.5,3.358,7.5,7.5C349.184,122.402,345.826,125.76,341.684,125.76z"/>
	<path style="fill:#0481BF;" d="M341.684,157.386H184.265c-4.142,0-7.5-3.358-7.5-7.5s3.358-7.5,7.5-7.5h157.419
		c4.143,0,7.5,3.358,7.5,7.5C349.184,154.028,345.826,157.386,341.684,157.386z"/>
</g>
<path style="fill:#FFFFFF;" d="M155.191,152.311c0,3.141-2.57,5.712-5.711,5.712H68.903c-3.141,0-5.711-2.57-5.711-5.712V53.959
	c0-3.141,2.571-5.711,5.711-5.711h80.578c3.141,0,5.711,2.57,5.711,5.711v98.352H155.191z"/>
<path style="fill:#0481BF;" d="M109.192,113.282c-10.833,0-19.614,8.801-19.614,19.659v25.082h39.228v-25.082
	C128.806,122.084,120.024,113.282,109.192,113.282z"/>
<ellipse style="fill:#FFD5B3;" cx="109.19" cy="92.72" rx="24.948" ry="25.01"/>
<g>
	<path style="fill:#F7931E;" d="M100.066,198.822h-32.36c-4.142,0-7.5-3.358-7.5-7.5s3.358-7.5,7.5-7.5h32.36
		c4.142,0,7.5,3.358,7.5,7.5S104.208,198.822,100.066,198.822z"/>
	<path style="fill:#F7931E;" d="M100.066,226.196h-32.36c-4.142,0-7.5-3.358-7.5-7.5s3.358-7.5,7.5-7.5h32.36
		c4.142,0,7.5,3.358,7.5,7.5S104.208,226.196,100.066,226.196z"/>
	<path style="fill:#F7931E;" d="M100.066,253.568h-32.36c-4.142,0-7.5-3.358-7.5-7.5s3.358-7.5,7.5-7.5h32.36
		c4.142,0,7.5,3.358,7.5,7.5C107.566,250.21,104.208,253.568,100.066,253.568z"/>
	<path style="fill:#F7931E;" d="M100.066,280.941h-32.36c-4.142,0-7.5-3.358-7.5-7.5s3.358-7.5,7.5-7.5h32.36
		c4.142,0,7.5,3.358,7.5,7.5S104.208,280.941,100.066,280.941z"/>
	<path style="fill:#F7931E;" d="M341.684,198.822H127.052c-4.142,0-7.5-3.358-7.5-7.5s3.358-7.5,7.5-7.5h214.631
		c4.143,0,7.5,3.358,7.5,7.5C349.184,195.464,345.826,198.822,341.684,198.822z"/>
	<path style="fill:#F7931E;" d="M341.684,226.196H127.052c-4.142,0-7.5-3.358-7.5-7.5s3.358-7.5,7.5-7.5h214.631
		c4.143,0,7.5,3.358,7.5,7.5S345.826,226.196,341.684,226.196z"/>
	<path style="fill:#F7931E;" d="M323.151,250h24.91c0.707-1.144,1.122-2.488,1.122-3.932c0-4.142-3.357-7.5-7.5-7.5H127.052
		c-4.142,0-7.5,3.358-7.5,7.5s3.358,7.5,7.5,7.5h191.224C318.951,251.508,320.873,250,323.151,250z"/>
	<path style="fill:#F7931E;" d="M318,265.941H127.052c-4.142,0-7.5,3.358-7.5,7.5s3.358,7.5,7.5,7.5H318V265.941z"/>
</g>
<path style="fill:#FB8276;" d="M60.206,433.41c0,3.39,2.773,6.164,6.164,6.164h74.673c3.39,0,6.164-2.774,6.164-6.164v-85.938
	c0-3.39-2.774-6.164-6.164-6.164H66.37c-3.39,0-6.164,2.774-6.164,6.164V433.41z"/>
<g>
	<path style="fill:#0481BF;" d="M239.717,356.882h-72.702c-4.142,0-7.5-3.358-7.5-7.5s3.358-7.5,7.5-7.5h72.702
		c4.142,0,7.5,3.358,7.5,7.5C247.217,353.524,243.859,356.882,239.717,356.882z"/>
	<path style="fill:#0481BF;" d="M239.717,384.254h-72.702c-4.142,0-7.5-3.358-7.5-7.5s3.358-7.5,7.5-7.5h72.702
		c4.142,0,7.5,3.358,7.5,7.5C247.217,380.897,243.859,384.254,239.717,384.254z"/>
	<path style="fill:#0481BF;" d="M239.717,411.627h-72.702c-4.142,0-7.5-3.358-7.5-7.5s3.358-7.5,7.5-7.5h72.702
		c4.142,0,7.5,3.358,7.5,7.5C247.217,408.27,243.859,411.627,239.717,411.627z"/>
	<path style="fill:#0481BF;" d="M239.717,439h-72.702c-4.142,0-7.5-3.358-7.5-7.5s3.358-7.5,7.5-7.5h72.702
		c4.142,0,7.5,3.358,7.5,7.5S243.859,439,239.717,439z"/>
	<path style="fill:#0481BF;" d="M318,341.882h-50.184c-4.143,0-7.5,3.358-7.5,7.5s3.357,7.5,7.5,7.5H318V341.882z"/>
	<path style="fill:#0481BF;" d="M318,369.254h-50.184c-4.143,0-7.5,3.358-7.5,7.5s3.357,7.5,7.5,7.5H318V369.254z"/>
	<path style="fill:#0481BF;" d="M318,396.627h-50.184c-4.143,0-7.5,3.358-7.5,7.5s3.357,7.5,7.5,7.5H318V396.627z"/>
	<path style="fill:#0481BF;" d="M318,424h-50.184c-4.143,0-7.5,3.358-7.5,7.5s3.357,7.5,7.5,7.5H318V424z"/>
</g>
<path style="fill:#F7931E;" d="M318,302.497H67.706c-4.142,0-7.5,3.358-7.5,7.5s3.358,7.5,7.5,7.5H318V302.497z"/>
<path style="fill:#89C947;" d="M489.441,506.849c0,2.833-2.317,5.151-5.15,5.151H317.826c-2.833,0-5.151-2.318-5.151-5.151V250.018
	c0-2.833,2.318-5.151,5.151-5.151h166.465c2.833,0,5.15,2.318,5.15,5.151L489.441,506.849L489.441,506.849z"/>
<path style="opacity:0.1;enable-background:new    ;" d="M336.354,506.849V250.018c0-2.833,2.318-5.151,5.151-5.151h-23.679
	c-2.833,0-5.151,2.318-5.151,5.151v256.831c0,2.833,2.318,5.151,5.151,5.151h23.679C338.672,512,336.354,509.682,336.354,506.849z"
	/>
<path style="fill:#FFDB67;" d="M442.543,385.402c0,2.833-2.317,5.151-5.15,5.151h-72.67c-2.833,0-5.151-2.318-5.151-5.151v-88.699
	c0-2.833,2.318-5.151,5.151-5.151h72.67c2.833,0,5.15,2.318,5.15,5.151V385.402z"/>
<path style="fill:#0481BF;" d="M401.058,350.204c-9.771,0-17.69,7.937-17.69,17.729v22.62h35.378v-22.62
	C418.745,358.141,410.827,350.204,401.058,350.204z"/>
<ellipse style="fill:#FFB98A;" cx="401.06" cy="331.65" rx="22.5" ry="22.552"/>
<g>
	<path style="fill:#368C0E;" d="M441.509,428.794h-80.903c-4.143,0-7.5-3.358-7.5-7.5s3.357-7.5,7.5-7.5h80.903
		c4.143,0,7.5,3.358,7.5,7.5C449.009,425.436,445.651,428.794,441.509,428.794z"/>
	<path style="fill:#368C0E;" d="M441.509,451.962h-80.903c-4.143,0-7.5-3.358-7.5-7.5s3.357-7.5,7.5-7.5h80.903
		c4.143,0,7.5,3.358,7.5,7.5C449.009,448.604,445.651,451.962,441.509,451.962z"/>
	<path style="fill:#368C0E;" d="M423.425,475.131H378.69c-4.142,0-7.5-3.358-7.5-7.5s3.358-7.5,7.5-7.5h44.734
		c4.143,0,7.5,3.358,7.5,7.5C430.925,471.773,427.567,475.131,423.425,475.131z"/>
</g>
<path style="fill:#C5CCD3;" d="M421.063,237c1.592-3.093,2.496-6.6,2.496-10.319c0-12.454-10.074-22.551-22.501-22.551
	s-22.499,10.097-22.499,22.551c0,3.72,0.904,7.226,2.496,10.319H421.063z"/>
<path style="fill:#9EA7AF;" d="M444.063,252.155c0,2.833-2.318,5.151-5.151,5.151h-75.709c-2.833,0-5.151-2.318-5.151-5.151v-15.69
	c0-2.833,2.318-5.151,5.151-5.151h75.709c2.833,0,5.151,2.318,5.151,5.151V252.155z"/>
<g>
</g>
<g>
</g>
<g>
</g>
<g>
</g>
<g>
</g>
<g>
</g>
<g>
</g>
<g>
</g>
<g>
</g>
<g>
</g>
<g>
</g>
<g>
</g>
<g>
</g>
<g>
</g>
<g>
</g>
</svg>
