<?xml version="1.0" encoding="utf-8"?>
<!-- Generator: Adobe Illustrator 18.0.0, SVG Export Plug-In . SVG Version: 6.00 Build 0)  -->
<!DOCTYPE svg PUBLIC "-//W3C//DTD SVG 1.1//EN" "http://www.w3.org/Graphics/SVG/1.1/DTD/svg11.dtd">
<svg version="1.1" id="Layer_1" xmlns="http://www.w3.org/2000/svg" xmlns:xlink="http://www.w3.org/1999/xlink" x="0px" y="0px"
	 viewBox="90.2 0 611.5 612" enable-background="new 90.2 0 611.5 612" xml:space="preserve">
<g id="Icon-Paper-Page" opacity="0.4">
	
		<rect x="159.6" transform="matrix(-0.9679 -0.2514 0.2514 -0.9679 702.3598 701.7217)" fill="#EFEEEF" width="472.9" height="612"/>
</g>
<g id="Icon-Paper-Text-27" opacity="0.4">
	
		<rect x="349.7" y="554.2" transform="matrix(-0.9679 -0.2514 0.2514 -0.9679 706.1313 1215.6829)" fill="#D0D2D3" width="162" height="17.1"/>
</g>
<g id="Icon-Paper-Text-26" opacity="0.4">
	
		<rect x="356.1" y="529.5" transform="matrix(-0.9679 -0.2514 0.2514 -0.9679 725.0117 1168.5719)" fill="#D0D2D3" width="162" height="17.1"/>
</g>
<g id="Icon-Paper-Text-25" opacity="0.4">
	
		<rect x="362.6" y="504.7" transform="matrix(-0.9679 -0.2514 0.2514 -0.9679 743.892 1121.4609)" fill="#D0D2D3" width="162" height="17.1"/>
</g>
<g id="Icon-Paper-Text-24" opacity="0.4">
	
		<rect x="375.4" y="455.2" transform="matrix(-0.9679 -0.2514 0.2514 -0.9679 781.6528 1027.2393)" fill="#D0D2D3" width="162" height="17.1"/>
</g>
<g id="Icon-Paper-Text-23" opacity="0.4">
	
		<rect x="381.9" y="430.4" transform="matrix(-0.9679 -0.2514 0.2514 -0.9679 800.5332 980.1283)" fill="#D0D2D3" width="162" height="17.1"/>
</g>
<g id="Icon-Paper-Text-22" opacity="0.4">
	
		<rect x="388.3" y="405.6" transform="matrix(-0.9679 -0.2514 0.2514 -0.9679 819.4136 933.0174)" fill="#D0D2D3" width="162" height="17.1"/>
</g>
<g id="Icon-Paper-Text-21" opacity="0.4">
	
		<rect x="394.7" y="380.9" transform="matrix(-0.9679 -0.2514 0.2514 -0.9679 838.2939 885.9065)" fill="#D0D2D3" width="162" height="17.1"/>
</g>
<g id="Icon-Paper-Text-20" opacity="0.4">
	
		<rect x="407.6" y="331.4" transform="matrix(-0.9679 -0.2514 0.2514 -0.9679 876.0547 791.6847)" fill="#D0D2D3" width="162" height="17.1"/>
</g>
<g id="Icon-Paper-Text-19" opacity="0.4">
	
		<rect x="414" y="306.6" transform="matrix(-0.9679 -0.2514 0.2514 -0.9679 894.9351 744.5737)" fill="#D0D2D3" width="162" height="17.1"/>
</g>
<g id="Icon-Paper-Text-18" opacity="0.4">
	
		<rect x="420.4" y="281.8" transform="matrix(-0.9679 -0.2514 0.2514 -0.9679 913.8155 697.4629)" fill="#D0D2D3" width="162" height="17.1"/>
</g>
<g id="Icon-Paper-Text-17" opacity="0.4">
	
		<rect x="426.9" y="257.1" transform="matrix(-0.9679 -0.2514 0.2514 -0.9679 932.6959 650.352)" fill="#D0D2D3" width="162" height="17.1"/>
</g>
<g id="Icon-Paper-Text-16" opacity="0.4">
	
		<rect x="159.9" y="504.9" transform="matrix(-0.9679 -0.2514 0.2514 -0.9679 344.9477 1070.9332)" fill="#D0D2D3" width="162" height="17.1"/>
</g>
<g id="Icon-Paper-Text-15" opacity="0.4">
	
		<rect x="166.3" y="480.1" transform="matrix(-0.9679 -0.2514 0.2514 -0.9679 363.8281 1023.8223)" fill="#D0D2D3" width="162" height="17.1"/>
</g>
<g id="Icon-Paper-Text-14" opacity="0.4">
	
		<rect x="172.7" y="455.4" transform="matrix(-0.9679 -0.2514 0.2514 -0.9679 382.7085 976.7114)" fill="#D0D2D3" width="162" height="17.1"/>
</g>
<g id="Icon-Paper-Text-13" opacity="0.4">
	
		<rect x="185.6" y="405.9" transform="matrix(-0.9679 -0.2514 0.2514 -0.9679 420.4692 882.4896)" fill="#D0D2D3" width="162" height="17.1"/>
</g>
<g id="Icon-Paper-Text-12" opacity="0.4">
	
		<rect x="192" y="381.1" transform="matrix(-0.9679 -0.2514 0.2514 -0.9679 439.3496 835.3787)" fill="#D0D2D3" width="162" height="17.1"/>
</g>
<g id="Icon-Paper-Text-11" opacity="0.4">
	
		<rect x="198.5" y="356.3" transform="matrix(-0.9679 -0.2514 0.2514 -0.9679 458.23 788.2678)" fill="#D0D2D3" width="162" height="17.1"/>
</g>
<g id="Icon-Paper-Text-10" opacity="0.4">
	
		<rect x="204.9" y="331.6" transform="matrix(-0.9679 -0.2514 0.2514 -0.9679 477.1104 741.1569)" fill="#D0D2D3" width="162" height="17.1"/>
</g>
<g id="Icon-Paper-Text-09" opacity="0.4">
	
		<rect x="217.7" y="282.1" transform="matrix(-0.9679 -0.2514 0.2514 -0.9679 514.8711 646.9351)" fill="#D0D2D3" width="162" height="17.1"/>
</g>
<g id="Icon-Paper-Text-08" opacity="0.4">
	
		<rect x="224.2" y="257.3" transform="matrix(-0.9679 -0.2514 0.2514 -0.9679 533.7515 599.8242)" fill="#D0D2D3" width="162" height="17.1"/>
</g>
<g id="Icon-Paper-Text-07" opacity="0.4">
	
		<rect x="230.6" y="232.5" transform="matrix(-0.9679 -0.2514 0.2514 -0.9679 552.6319 552.7133)" fill="#D0D2D3" width="162" height="17.1"/>
</g>
<g id="Icon-Paper-Text-06" opacity="0.4">
	
		<rect x="237" y="207.8" transform="matrix(-0.9679 -0.2514 0.2514 -0.9679 571.5123 505.6024)" fill="#D0D2D3" width="162" height="17.1"/>
</g>
<g id="Icon-Paper-Text-05" opacity="0.4">
	
		<rect x="246.8" y="182.9" transform="matrix(-0.9679 -0.2514 0.2514 -0.9679 789.8648 483.7554)" fill="#BBBDBF" width="358.2" height="17.1"/>
</g>
<g id="Icon-Paper-Text-04" opacity="0.4">
	
		<rect x="253.2" y="158.1" transform="matrix(-0.9679 -0.2514 0.2514 -0.9679 808.7452 436.6444)" fill="#BBBDBF" width="358.2" height="17.1"/>
</g>
<g id="Icon-Paper-Text-03" opacity="0.4">
	
		<rect x="259.6" y="133.4" transform="matrix(-0.9679 -0.2514 0.2514 -0.9679 827.6256 389.5335)" fill="#BBBDBF" width="358.2" height="17.1"/>
</g>
<g id="Icon-Paper-Text-02" opacity="0.4">
	
		<rect x="374.1" y="92.1" transform="matrix(-0.9679 -0.2514 0.2514 -0.9679 859.0929 311.0154)" fill="#929497" width="150.7" height="17.1"/>
</g>
<g id="Icon-Paper-Text-01" opacity="0.4">
	
		<rect x="277.8" y="59" transform="matrix(-0.9679 -0.2514 0.2514 -0.9679 881.1201 256.0526)" fill="#929497" width="358.2" height="25.6"/>
</g>
</svg>
