<?xml version="1.0" encoding="utf-8"?>
<!-- Generator: Adobe Illustrator 18.0.0, SVG Export Plug-In . SVG Version: 6.00 Build 0)  -->
<!DOCTYPE svg PUBLIC "-//W3C//DTD SVG 1.1//EN" "http://www.w3.org/Graphics/SVG/1.1/DTD/svg11.dtd">
<svg version="1.1" xmlns="http://www.w3.org/2000/svg" xmlns:xlink="http://www.w3.org/1999/xlink" x="0px" y="0px"
	 viewBox="0 0 332.7 430.6" style="enable-background:new 0 0 332.7 430.6;" xml:space="preserve">
<style type="text/css">
	.st0{fill:#EFEEEF;}
	.st1{fill:#D0D2D3;}
	.st2{fill:#BBBDBF;}
	.st3{fill:#929497;}
</style>
<g id="Icon-Paper-Page">
	<rect x="0" y="0" class="st0" width="332.7" height="430.6"/>
</g>
<g id="Icon-Paper-Text-27">
	<rect x="178.4" y="378" class="st1" width="114" height="12"/>
</g>
<g id="Icon-Paper-Text-26">
	<rect x="178.4" y="360" class="st1" width="114" height="12"/>
</g>
<g id="Icon-Paper-Text-25">
	<rect x="178.4" y="342" class="st1" width="114" height="12"/>
</g>
<g id="Icon-Paper-Text-24">
	<rect x="178.4" y="306" class="st1" width="114" height="12"/>
</g>
<g id="Icon-Paper-Text-23">
	<rect x="178.4" y="288" class="st1" width="114" height="12"/>
</g>
<g id="Icon-Paper-Text-22">
	<rect x="178.4" y="270" class="st1" width="114" height="12"/>
</g>
<g id="Icon-Paper-Text-21">
	<rect x="178.4" y="252" class="st1" width="114" height="12"/>
</g>
<g id="Icon-Paper-Text-20">
	<rect x="178.4" y="216" class="st1" width="114" height="12"/>
</g>
<g id="Icon-Paper-Text-19">
	<rect x="178.4" y="198" class="st1" width="114" height="12"/>
</g>
<g id="Icon-Paper-Text-18">
	<rect x="178.4" y="180" class="st1" width="114" height="12"/>
</g>
<g id="Icon-Paper-Text-17">
	<rect x="178.4" y="162" class="st1" width="114" height="12"/>
</g>
<g id="Icon-Paper-Text-16">
	<rect x="40.4" y="378" class="st1" width="114" height="12"/>
</g>
<g id="Icon-Paper-Text-15">
	<rect x="40.4" y="360" class="st1" width="114" height="12"/>
</g>
<g id="Icon-Paper-Text-14">
	<rect x="40.4" y="342" class="st1" width="114" height="12"/>
</g>
<g id="Icon-Paper-Text-13">
	<rect x="40.4" y="306" class="st1" width="114" height="12"/>
</g>
<g id="Icon-Paper-Text-12">
	<rect x="40.4" y="288" class="st1" width="114" height="12"/>
</g>
<g id="Icon-Paper-Text-11">
	<rect x="40.4" y="270" class="st1" width="114" height="12"/>
</g>
<g id="Icon-Paper-Text-10">
	<rect x="40.4" y="252" class="st1" width="114" height="12"/>
</g>
<g id="Icon-Paper-Text-09">
	<rect x="40.4" y="216" class="st1" width="114" height="12"/>
</g>
<g id="Icon-Paper-Text-08">
	<rect x="40.4" y="198" class="st1" width="114" height="12"/>
</g>
<g id="Icon-Paper-Text-07">
	<rect x="40.4" y="180" class="st1" width="114" height="12"/>
</g>
<g id="Icon-Paper-Text-06">
	<rect x="40.4" y="162" class="st1" width="114" height="12"/>
</g>
<g id="Icon-Paper-Text-05">
	<rect x="40.4" y="126" class="st2" width="252" height="12"/>
</g>
<g id="Icon-Paper-Text-04">
	<rect x="40.4" y="108" class="st2" width="252" height="12"/>
</g>
<g id="Icon-Paper-Text-03">
	<rect x="40.4" y="90" class="st2" width="252" height="12"/>
</g>
<g id="Icon-Paper-Text-02">
	<rect x="113.4" y="60" class="st3" width="106" height="12"/>
</g>
<g id="Icon-Paper-Text-01">
	<rect x="40.4" y="36" class="st3" width="252" height="18"/>
</g>
</svg>
